<svg width="40" height="40" viewBox="0 0 40 40" fill="none" xmlns="http://www.w3.org/2000/svg">
<circle cx="20" cy="20" r="19.75" fill="#1A1A1A" stroke="#999999" stroke-width="0.5"/>
<path d="M28.3707 17.7557C27.8518 15.819 26.6773 14.1221 25.0475 12.9542C23.4177 11.7862 21.4333 11.2196 19.4325 11.3507C17.4317 11.4819 15.5383 12.3027 14.0749 13.6733C12.6114 15.044 11.6685 16.8797 11.4068 18.8676C11.1451 20.8555 11.5808 22.8727 12.6396 24.5754C13.6984 26.2781 15.3149 27.561 17.2135 28.2056C19.1122 28.8501 21.1756 28.8163 23.0522 28.11C24.9288 27.4037 26.5024 26.0686 27.5049 24.3322" stroke="#F2F2F2" stroke-width="1.3" stroke-linejoin="round"/>
<path d="M29.7871 13.6465L28.6656 17.8322L24.4799 16.7106" stroke="#F2F2F2" stroke-width="1.3" stroke-linejoin="round"/>
</svg>
