<svg width="30" height="30" viewBox="0 0 30 30" fill="none" xmlns="http://www.w3.org/2000/svg">
<path fill-rule="evenodd" clip-rule="evenodd" d="M18.3638 5.29755C17.3492 4.7863 16.2052 4.5 15.0003 4.5C11.1874 4.5 7.98424 7.36697 7.56318 11.1566L7.24842 13.9893C7.19584 14.4626 7.17151 14.6798 7.13537 14.8918C7.00345 15.6655 6.75087 16.4138 6.38687 17.1092C6.28715 17.2997 6.17488 17.4872 5.92989 17.8956L5.13896 19.2138L5.11731 19.2498L5.11729 19.2499C4.73284 19.8906 4.41506 20.4202 4.23528 20.8537C4.05076 21.2986 3.95193 21.7811 4.2112 22.239C4.47048 22.697 4.93508 22.8605 5.41154 22.9312C5.87577 23 6.4934 23 7.24062 23H7.2827H22.7179H22.76C23.5072 23 24.1249 23 24.5891 22.9312C25.0655 22.8605 25.5301 22.697 25.7894 22.239C26.0487 21.7811 25.9499 21.2986 25.7653 20.8537C25.5856 20.4202 25.2678 19.8906 24.8833 19.2498L24.8617 19.2138L24.0707 17.8956C23.8258 17.4872 23.7135 17.2997 23.6138 17.1092C23.2498 16.4138 22.9972 15.6655 22.8653 14.8918C22.8291 14.6798 22.8048 14.4626 22.7522 13.9893L22.6456 13.0295C22.3314 13.1319 22.0021 13.2006 21.6618 13.2314L21.7583 14.0998L21.7603 14.1177L21.7603 14.1178C21.8104 14.5686 21.8379 14.8158 21.8795 15.0598C22.029 15.9368 22.3153 16.7848 22.7278 17.573C22.8426 17.7923 22.9706 18.0056 23.2039 18.3945L23.2132 18.41L24.0042 19.7283C24.4158 20.4142 24.6937 20.8801 24.8416 21.2368C24.9882 21.5901 24.9472 21.697 24.9192 21.7463C24.8913 21.7957 24.8207 21.8859 24.4423 21.942C24.0604 21.9987 23.5179 22 22.7179 22H7.2827C6.48272 22 5.94025 21.9987 5.5583 21.942C5.1799 21.8859 5.10936 21.7957 5.0814 21.7463C5.05345 21.697 5.01245 21.5901 5.15899 21.2368C5.30692 20.8801 5.58487 20.4142 5.99646 19.7283L6.78738 18.41L6.79665 18.3946C7.03004 18.0056 7.15805 17.7923 7.27284 17.573C7.68538 16.7848 7.97163 15.9368 8.12114 15.0598C8.16275 14.8158 8.19022 14.5685 8.24031 14.1177L8.24231 14.0998L8.55706 11.267C8.92185 7.98383 11.697 5.5 15.0003 5.5C15.9375 5.5 16.8322 5.69994 17.6414 6.06135C17.8518 5.77945 18.0944 5.52302 18.3638 5.29755ZM20.1158 6.52162C19.8111 6.67707 19.5425 6.8932 19.3259 7.15407C20.4714 8.18024 21.2536 9.61221 21.4408 11.2428C21.79 11.2165 22.1191 11.1185 22.4135 10.9635C22.1728 9.20824 21.3331 7.66156 20.1158 6.52162Z" fill="white"/>
<path d="M11.3778 23.0073C11.5914 23.9376 12.0622 24.7596 12.7171 25.3459C13.3721 25.9322 14.1745 26.25 15 26.25C15.8255 26.25 16.6279 25.9322 17.2829 25.3459C17.9378 24.7596 18.4086 23.9376 18.6222 23.0073" stroke="white" stroke-linecap="round"/>
<circle cx="21.25" cy="8.75" r="2.5" fill="#FF0000"/>
</svg>
