<svg width="30" height="30" viewBox="0 0 30 30" fill="none" xmlns="http://www.w3.org/2000/svg">
<path fill-rule="evenodd" clip-rule="evenodd" d="M15.0003 4.25C11.06 4.25 7.74984 7.21275 7.3147 11.1289L6.99995 13.9617C6.94706 14.4377 6.92357 14.6466 6.88893 14.8497C6.7614 15.5977 6.51724 16.321 6.16538 16.9933C6.0698 17.1759 5.96193 17.3562 5.71551 17.7669L4.92459 19.0851L4.89442 19.1354C4.51735 19.7638 4.19134 20.307 4.00435 20.7579C3.81033 21.2257 3.67654 21.8021 3.99365 22.3622C4.31076 22.9223 4.87388 23.1041 5.37486 23.1785C5.85766 23.2501 6.49121 23.2501 7.22401 23.25H7.22404L7.28269 23.25H22.7179L22.7766 23.25H22.7766C23.5094 23.2501 24.143 23.2501 24.6258 23.1785C25.1268 23.1041 25.6899 22.9223 26.007 22.3622C26.3241 21.8021 26.1903 21.2257 25.9963 20.7579C25.8093 20.307 25.4833 19.7638 25.1062 19.1354L25.076 19.0851L24.2851 17.7669C24.0387 17.3562 23.9308 17.1759 23.8353 16.9933C23.4834 16.321 23.2392 15.5977 23.1117 14.8497C23.0771 14.6466 23.0536 14.4377 23.0007 13.9617L22.8875 12.9429C22.4277 13.1226 21.931 13.2288 21.412 13.2471L21.5099 14.1274L21.5127 14.1527C21.562 14.5965 21.5902 14.8505 21.633 15.1018C21.787 16.0046 22.0816 16.8775 22.5063 17.6889C22.6245 17.9147 22.756 18.1339 22.9856 18.5166L22.9856 18.5166L22.9989 18.5387L23.7898 19.8569C24.2057 20.5501 24.4716 20.9971 24.6107 21.3325C24.6784 21.4957 24.6941 21.5815 24.6963 21.6201C24.662 21.6381 24.5804 21.6688 24.4056 21.6947C24.0464 21.748 23.5264 21.75 22.7179 21.75H7.28269C6.47426 21.75 5.9542 21.748 5.59498 21.6947C5.42024 21.6688 5.3386 21.6381 5.30433 21.6201C5.30651 21.5815 5.32225 21.4957 5.38992 21.3325C5.52904 20.9971 5.79489 20.5501 6.21083 19.8569L7.00175 18.5387L7.01494 18.5167L7.01496 18.5167C7.24462 18.1339 7.37613 17.9147 7.49434 17.6889C7.91901 16.8775 8.21368 16.0046 8.36759 15.1018C8.41043 14.8506 8.43865 14.5965 8.48794 14.1529L8.48794 14.1529L8.49078 14.1274L8.80553 11.2946C9.15626 8.13805 11.8243 5.75 15.0003 5.75C15.8841 5.75 16.7286 5.93494 17.4948 6.26991C17.787 5.8284 18.1549 5.44142 18.58 5.1275C17.5061 4.56581 16.2868 4.25 15.0003 4.25ZM20.3633 6.4119C19.8764 6.59673 19.4621 6.92934 19.1754 7.35496C20.2627 8.33586 21.0063 9.69844 21.1899 11.2493C21.21 11.2498 21.2301 11.25 21.2503 11.25C21.7672 11.25 22.2474 11.0931 22.646 10.8244C22.3842 9.09075 21.5558 7.55948 20.3633 6.4119ZM24.6942 21.6466C24.6936 21.6461 24.6938 21.6414 24.6965 21.6341C24.6962 21.6434 24.6948 21.6471 24.6942 21.6466ZM24.7084 21.6132C24.7132 21.607 24.7171 21.6045 24.7179 21.6047C24.7186 21.605 24.7162 21.6081 24.7084 21.6132ZM5.28276 21.6047C5.28348 21.6044 5.28738 21.607 5.29228 21.6132C5.28448 21.6081 5.28203 21.605 5.28276 21.6047ZM5.30411 21.6341C5.30688 21.6414 5.30705 21.6461 5.30644 21.6466C5.30584 21.647 5.30445 21.6434 5.30411 21.6341Z" fill="white"/>
<path d="M11.3778 23.0073C11.5914 23.9376 12.0622 24.7596 12.7171 25.3459C13.3721 25.9322 14.1745 26.25 15 26.25C15.8255 26.25 16.6279 25.9322 17.2829 25.3459C17.9378 24.7596 18.4086 23.9376 18.6222 23.0073" stroke="white" stroke-width="1.5" stroke-linecap="round"/>
<circle cx="21.25" cy="8.75" r="2.5" fill="#FF0000"/>
</svg>
