<svg width="32" height="32" viewBox="0 0 32 32" fill="none" xmlns="http://www.w3.org/2000/svg">
<path d="M27.8737 24.1632V15.3473C27.8737 14.0238 27.3451 12.7537 26.3838 11.844C25.257 10.7776 23.6936 9.33896 22.4315 8.33137C20.0441 6.42542 18.8525 4.86816 15.9998 4.86816C13.1471 4.86816 11.9556 6.42542 9.56816 8.33137C8.30604 9.33896 6.74269 10.7776 5.61587 11.844C4.6546 12.7537 4.12598 14.0238 4.12598 15.3473V24.1632C4.12598 25.8026 5.455 27.1317 7.09444 27.1317H11.0524C12.1454 27.1317 13.0314 26.2456 13.0314 25.1527V20.8044C13.0314 19.8119 13.5274 18.8851 14.3532 18.3345C15.3503 17.6698 16.6493 17.6698 17.6464 18.3345C18.4723 18.8851 18.9683 19.8119 18.9683 20.8044V25.1527C18.9683 26.2456 19.8543 27.1317 20.9473 27.1317H24.9052C26.5447 27.1317 27.8737 25.8026 27.8737 24.1632Z" fill="white"/>
</svg>
