<svg width="32" height="32" viewBox="0 0 32 32" fill="none" xmlns="http://www.w3.org/2000/svg">
<path d="M26.7628 23.3452V15.354C26.7628 14.1543 26.2836 13.003 25.4123 12.1783C24.3909 11.2117 22.9737 9.9076 21.8297 8.99426C19.6655 7.26658 18.5854 5.85498 15.9996 5.85498C13.4137 5.85498 12.3336 7.26658 10.1695 8.99426C9.02541 9.9076 7.60829 11.2117 6.58686 12.1783C5.71551 13.003 5.23633 14.1543 5.23633 15.354V23.3452C5.23633 24.8313 6.44104 25.6378 7.92714 25.6378H11.7634C12.3157 25.6378 12.7634 25.1901 12.7634 24.6378V20.3006V19.3398C12.7634 17.529 14.2314 16.061 16.0423 16.061C17.8531 16.061 19.3211 17.529 19.3211 19.3398V20.3006V24.6378C19.3211 25.1901 19.7688 25.6378 20.3211 25.6378H24.072C25.5581 25.6378 26.7628 24.8313 26.7628 23.3452Z" fill="white" stroke="white" stroke-width="2.5"/>
</svg>
