<svg width="58" height="58" viewBox="0 0 58 58" fill="none" xmlns="http://www.w3.org/2000/svg">
<g filter="url(#filter0_d_868_737)">
<rect x="4" width="50" height="50" rx="25" fill="url(#paint0_linear_868_737)"/>
<path d="M35.2473 29.668L35.6229 32.7109C35.7191 33.5102 34.8621 34.0687 34.1784 33.6546L30.1436 31.2568C29.7006 31.2568 29.2673 31.228 28.8436 31.1702C29.5562 30.3324 29.9799 29.2731 29.9799 28.1272C29.9799 25.3924 27.611 23.1776 24.6836 23.1776C23.5666 23.1776 22.5362 23.4954 21.6792 24.0539C21.6503 23.8131 21.6406 23.5724 21.6406 23.322C21.6406 18.9405 25.4443 15.3872 30.1436 15.3872C34.8428 15.3872 38.6466 18.9405 38.6466 23.322C38.6466 25.922 37.308 28.2235 35.2473 29.668Z" stroke="#F1F1F1" stroke-linecap="round" stroke-linejoin="round"/>
<path d="M29.98 28.1273C29.98 29.2732 29.5563 30.3325 28.8438 31.1703C27.8904 32.3259 26.3786 33.0673 24.6837 33.0673L22.1704 34.5599C21.7467 34.8199 21.2074 34.4636 21.2652 33.9725L21.506 32.0755C20.2156 31.1799 19.3875 29.7451 19.3875 28.1273C19.3875 26.4325 20.2926 24.9399 21.6793 24.054C22.5363 23.4955 23.5667 23.1777 24.6837 23.1777C27.6112 23.1777 29.98 25.3925 29.98 28.1273Z" stroke="#F1F1F1" stroke-linecap="round" stroke-linejoin="round"/>
</g>
<defs>
<filter id="filter0_d_868_737" x="0" y="0" width="58" height="58" filterUnits="userSpaceOnUse" color-interpolation-filters="sRGB">
<feFlood flood-opacity="0" result="BackgroundImageFix"/>
<feColorMatrix in="SourceAlpha" type="matrix" values="0 0 0 0 0 0 0 0 0 0 0 0 0 0 0 0 0 0 127 0" result="hardAlpha"/>
<feOffset dy="4"/>
<feGaussianBlur stdDeviation="2"/>
<feComposite in2="hardAlpha" operator="out"/>
<feColorMatrix type="matrix" values="0 0 0 0 0 0 0 0 0 0 0 0 0 0 0 0 0 0 0.25 0"/>
<feBlend mode="normal" in2="BackgroundImageFix" result="effect1_dropShadow_868_737"/>
<feBlend mode="normal" in="SourceGraphic" in2="effect1_dropShadow_868_737" result="shape"/>
</filter>
<linearGradient id="paint0_linear_868_737" x1="5.47059" y1="24.2647" x2="54" y2="24.2647" gradientUnits="userSpaceOnUse">
<stop stop-color="#3A65BA"/>
<stop offset="0.833782" stop-color="#8ECFFF" stop-opacity="0.7"/>
<stop offset="0.945397" stop-color="#89E3FF" stop-opacity="0.342222"/>
</linearGradient>
</defs>
</svg>
