<svg width="243" height="242" viewBox="0 0 243 242" fill="none" xmlns="http://www.w3.org/2000/svg">
<path d="M117.317 229.364V227.233H126.138V229.364H117.317ZM123.496 213V231.622C123.496 232.56 123.276 233.341 122.836 233.966C122.395 234.591 121.824 235.06 121.12 235.372C120.417 235.685 119.675 235.841 118.894 235.841C118.276 235.841 117.772 235.791 117.381 235.692C116.991 235.592 116.699 235.5 116.508 235.415L117.232 233.241C117.36 233.284 117.537 233.337 117.765 233.401C117.985 233.465 118.276 233.497 118.638 233.497C119.469 233.497 120.069 233.288 120.439 232.869C120.801 232.45 120.982 231.835 120.982 231.026V213H123.496Z" fill="black"/>
<path d="M102.944 210.656C104.389 210.964 105.584 211.577 106.529 212.497C107.466 213.415 108.109 214.557 108.458 215.923C108.799 217.289 108.794 218.798 108.443 220.451C108.088 222.118 107.477 223.51 106.608 224.625C105.732 225.738 104.68 226.524 103.45 226.981C102.213 227.437 100.872 227.511 99.4269 227.204C97.9819 226.897 96.7907 226.285 95.8531 225.366C94.9086 224.447 94.2663 223.301 93.9262 221.929C93.5792 220.556 93.5829 219.035 93.9373 217.368C94.2887 215.714 94.9016 214.334 95.7757 213.228C96.643 212.12 97.695 211.338 98.9319 210.882C100.162 210.424 101.499 210.349 102.944 210.656ZM102.475 212.866C101.377 212.632 100.414 212.722 99.586 213.134C98.7578 213.546 98.076 214.174 97.5407 215.019C97.0053 215.864 96.624 216.821 96.3966 217.891C96.1692 218.96 96.1275 219.994 96.2715 220.99C96.4155 221.986 96.7813 222.844 97.3688 223.565C97.9563 224.285 98.7989 224.762 99.8965 224.995C100.994 225.228 101.958 225.136 102.787 224.717C103.617 224.298 104.3 223.662 104.837 222.811C105.374 221.959 105.756 220.998 105.984 219.928C106.211 218.859 106.252 217.829 106.106 216.84C105.961 215.85 105.594 214.999 105.005 214.286C104.416 213.572 103.572 213.099 102.475 212.866Z" fill="black"/>
<path d="M74.5588 224.467L83.433 204.535L85.7299 205.558L76.8556 225.49L74.5588 224.467Z" fill="black"/>
<path d="M54.0834 212.343L66.9078 194.691L68.9418 196.169L56.1174 213.821L54.0834 212.343Z" fill="black"/>
<path d="M53.8849 182.333C54.8734 183.431 55.4794 184.629 55.703 185.928C55.9219 187.222 55.7707 188.524 55.2494 189.835C54.7233 191.14 53.8322 192.358 52.5761 193.489C51.3094 194.629 49.9969 195.396 48.6387 195.787C47.2757 196.173 45.9623 196.19 44.6984 195.837C43.4297 195.479 42.3012 194.751 41.3127 193.653C40.3242 192.555 39.7205 191.359 39.5017 190.065C39.2781 188.766 39.4319 187.462 39.9633 186.152C40.4898 184.837 41.3865 183.609 42.6532 182.468C43.9093 181.337 45.2163 180.581 46.574 180.2C47.9269 179.813 49.2377 179.799 50.5063 180.157C51.7702 180.51 52.8964 181.235 53.8849 182.333ZM52.2065 183.844C51.4556 183.01 50.6241 182.517 49.7118 182.363C48.7996 182.21 47.8786 182.317 46.9491 182.686C46.0195 183.055 45.1483 183.605 44.3355 184.337C43.5227 185.069 42.8817 185.88 42.4126 186.771C41.9435 187.661 41.7349 188.571 41.7869 189.499C41.8388 190.427 42.2402 191.308 42.9911 192.142C43.742 192.976 44.5762 193.467 45.4937 193.616C46.4112 193.764 47.3374 193.652 48.2723 193.278C49.2071 192.905 50.0809 192.352 50.8937 191.621C51.7066 190.889 52.3449 190.08 52.8087 189.194C53.2726 188.308 53.4759 187.403 53.4186 186.48C53.3614 185.557 52.9574 184.678 52.2065 183.844Z" fill="black"/>
<path d="M45.1651 171.918L33.4867 184.418L32.1657 182.13L41.2472 172.802L41.1619 172.655L28.5648 175.893L27.2225 173.568L36.3097 164.336L36.2245 164.188L23.643 167.368L22.3219 165.08L38.9862 161.216L40.222 163.356L31.1249 172.742L31.2528 172.963L43.9294 169.778L45.1651 171.918Z" fill="black"/>
<path d="M34.8917 150.626L19.3289 155.683L18.552 153.292L34.1147 148.235L34.8917 150.626ZM16.3401 155.31C16.4915 155.776 16.4634 156.23 16.2556 156.67C16.0457 157.105 15.7179 157.394 15.272 157.539C14.8262 157.684 14.3908 157.642 13.9658 157.414C13.5386 157.18 13.2493 156.83 13.0979 156.363C12.9464 155.897 12.9757 155.447 13.1856 155.013C13.3933 154.572 13.7201 154.279 14.1659 154.135C14.6117 153.99 15.0482 154.035 15.4754 154.269C15.9004 154.497 16.1887 154.844 16.3401 155.31Z" fill="black"/>
<path d="M21.128 135.583L30.9178 134.554L31.1806 137.054L14.9066 138.765L14.6527 136.349L17.1955 136.082L17.1733 135.87C16.3068 135.576 15.5819 135.066 14.9988 134.342C14.4086 133.618 14.0489 132.642 13.9197 131.413C13.8039 130.311 13.9286 129.323 14.2938 128.449C14.6519 127.576 15.2624 126.862 16.1253 126.307C16.9812 125.753 18.1013 125.403 19.4857 125.258L29.8265 124.171L30.0893 126.671L19.9181 127.74C18.6396 127.875 17.6786 128.311 17.0349 129.05C16.3843 129.79 16.1198 130.739 16.2416 131.897C16.3254 132.696 16.5735 133.391 16.9857 133.983C17.3971 134.568 17.9537 135.006 18.6555 135.297C19.3574 135.587 20.1815 135.682 21.128 135.583Z" fill="black"/>
<path d="M36.9735 111.796C36.8466 113.004 36.5821 114.026 36.18 114.862C35.7849 115.699 35.3062 116.381 34.7438 116.907C34.1893 117.427 33.6116 117.827 33.0109 118.107L31.8217 115.968C32.1422 115.773 32.5113 115.523 32.9291 115.217C33.3539 114.912 33.7392 114.474 34.0848 113.903C34.4383 113.326 34.6666 112.546 34.7698 111.565C34.9079 110.251 34.704 109.133 34.1581 108.212C33.6122 107.29 32.6612 106.758 31.305 106.616L27.9994 106.268L27.9771 106.48C28.2545 106.695 28.5943 106.995 28.9966 107.38C29.3926 107.757 29.727 108.278 30 108.942C30.2666 109.599 30.3443 110.457 30.2329 111.516C30.0948 112.83 29.6601 113.977 28.9286 114.957C28.1979 115.93 27.2073 116.658 25.9568 117.141C24.7071 117.616 23.2346 117.765 21.5394 117.587C19.8724 117.412 18.4517 116.966 17.2773 116.25C16.0957 115.533 15.2209 114.616 14.6526 113.499C14.0774 112.382 13.8617 111.138 14.0058 109.768C14.1171 108.708 14.3821 107.886 14.8006 107.302C15.2127 106.71 15.6588 106.271 16.1386 105.986C16.6122 105.693 16.9999 105.469 17.3017 105.315L17.3285 105.061L14.7433 104.789L14.9972 102.374L31.7374 104.133C33.1359 104.28 34.2397 104.717 35.0487 105.445C35.8656 106.167 36.4228 107.082 36.7204 108.192C37.0258 109.295 37.1101 110.497 36.9735 111.796ZM28.0224 110.941C28.1278 109.938 27.9874 109.066 27.601 108.326C27.2146 107.586 26.6095 106.99 25.7856 106.539C24.9618 106.088 23.9495 105.8 22.7487 105.674C21.5762 105.55 20.5228 105.618 19.5887 105.877C18.6545 106.136 17.8967 106.585 17.3154 107.223C16.7341 107.862 16.39 108.69 16.2831 109.707C16.1717 110.767 16.3474 111.678 16.8099 112.441C17.2732 113.196 17.9384 113.798 18.8054 114.247C19.6731 114.688 20.6579 114.966 21.7598 115.082C22.89 115.201 23.908 115.129 24.8139 114.867C25.7135 114.598 26.4473 114.139 27.0152 113.492C27.5768 112.837 27.9125 111.987 28.0224 110.941Z" fill="black"/>
<path d="M30.4957 62.7628L32.341 63.8281L27.9305 71.4673L26.0852 70.402L30.4957 62.7628ZM41.5776 76.2957L25.4503 66.9846C24.6384 66.5159 24.0719 65.9346 23.7508 65.2408C23.4297 64.5469 23.3096 63.8174 23.3906 63.0522C23.4715 62.287 23.7073 61.5662 24.0979 60.8896C24.4069 60.3545 24.702 59.9426 24.9835 59.6541C25.2649 59.3655 25.4904 59.1595 25.6601 59.036L27.18 60.75C27.0792 60.8394 26.9443 60.9666 26.7753 61.1314C26.6099 61.2901 26.4366 61.5263 26.2555 61.84C25.84 62.5597 25.7214 63.1842 25.8996 63.7135C26.0814 64.2367 26.5229 64.7007 27.2241 65.1056L42.8347 74.1184L41.5776 76.2957Z" fill="black"/>
<path d="M53.8831 59.6691C52.8946 60.7669 51.7661 61.4949 50.4974 61.8531C49.2335 62.206 47.9227 62.1917 46.5651 61.8102C45.2121 61.4235 43.9076 60.6646 42.6514 59.5335C41.3847 58.393 40.4856 57.1678 39.9543 55.8579C39.4278 54.5428 39.2739 53.2383 39.4928 51.9444C39.7164 50.6453 40.3224 49.4468 41.3109 48.349C42.2994 47.2512 43.4256 46.5258 44.6895 46.1729C45.9581 45.8147 47.2715 45.8314 48.6297 46.2229C49.9927 46.6091 51.3076 47.3725 52.5743 48.513C53.8305 49.6441 54.7192 50.8648 55.2405 52.1752C55.7665 53.4803 55.9177 54.7824 55.6941 56.0816C55.4753 57.3754 54.8716 58.5713 53.8831 59.6691ZM52.2047 58.1578C52.9556 57.3239 53.3596 56.4453 53.4169 55.522C53.4741 54.5987 53.2708 53.6941 52.8069 52.8082C52.3431 51.9222 51.7048 51.1133 50.892 50.3815C50.0791 49.6496 49.2053 49.0969 48.2705 48.7235C47.3356 48.3501 46.4094 48.2377 45.4919 48.3863C44.5744 48.535 43.7402 49.0263 42.9893 49.8602C42.2384 50.6942 41.837 51.5752 41.7851 52.5032C41.7331 53.4313 41.9417 54.3406 42.4108 55.2313C42.8799 56.122 43.5209 56.9333 44.3337 57.6651C45.1465 58.397 46.0177 58.9473 46.9473 59.3159C47.8769 59.6846 48.7978 59.7923 49.71 59.6389C50.6223 59.4854 51.4538 58.9918 52.2047 58.1578Z" fill="black"/>
<path d="M56.1153 28.181L68.9397 45.8323L66.9057 47.3101L54.0812 29.6588L56.1153 28.181Z" fill="black"/>
<path d="M76.8532 16.5111L85.7274 36.443L83.4306 37.4657L74.5563 17.5338L76.8532 16.5111Z" fill="black"/>
<path d="M102.942 31.3442C101.497 31.6513 100.156 31.5769 98.9189 31.121C97.689 30.6636 96.6369 29.8816 95.7627 28.7749C94.8955 27.6668 94.2861 26.2861 93.9347 24.6327C93.5803 22.9654 93.5731 21.4457 93.9132 20.0737C94.2602 18.7003 94.9025 17.5545 95.8401 16.6363C96.7846 15.7167 97.9793 15.1034 99.4243 14.7962C100.869 14.4891 102.207 14.5642 103.437 15.0216C104.674 15.4776 105.726 16.263 106.595 17.3781C107.471 18.4917 108.086 19.8821 108.44 21.5494C108.792 23.2028 108.793 24.7128 108.445 26.0793C108.103 27.4444 107.46 28.5867 106.516 29.5063C105.578 30.4244 104.387 31.037 102.942 31.3442ZM102.472 29.135C103.57 28.9017 104.413 28.4284 105.002 27.715C105.591 27.0017 105.958 26.1504 106.104 25.161C106.249 24.1716 106.208 23.142 105.981 22.0722C105.754 21.0023 105.371 20.0416 104.835 19.19C104.298 18.3384 103.615 17.703 102.785 17.284C101.955 16.865 100.992 16.7721 99.8939 17.0054C98.7963 17.2387 97.9537 17.7155 97.3662 18.4358C96.7787 19.1561 96.4129 20.0144 96.2689 21.0107C96.1249 22.007 96.1666 23.0401 96.394 24.1099C96.6214 25.1798 97.0027 26.137 97.5381 26.9817C98.0734 27.8263 98.7551 28.4547 99.5834 28.8668C100.412 29.2789 101.374 29.3683 102.472 29.135Z" fill="black"/>
<path d="M116.321 29L111.335 12.6364L113.977 12.6364L117.514 25.1648H117.685L121.179 12.6364H123.864L127.315 25.1222H127.486L131.023 12.6364H133.665L128.679 29H126.207L122.628 16.429H122.372L118.793 29L116.321 29Z" fill="black"/>
<path d="M139.897 30.7488L143.299 14.7427L145.758 15.2655L142.356 31.2715L139.897 30.7488ZM145.117 12.3408C144.637 12.239 144.259 11.9878 143.981 11.5875C143.71 11.1886 143.623 10.7599 143.72 10.3014C143.818 9.84293 144.071 9.4866 144.481 9.23244C144.898 8.97976 145.346 8.90436 145.825 9.00625C146.305 9.10814 146.68 9.35852 146.951 9.75739C147.229 10.1577 147.319 10.5872 147.222 11.0457C147.124 11.5042 146.867 11.8598 146.45 12.1124C146.041 12.3666 145.596 12.4427 145.117 12.3408Z" fill="black"/>
<path d="M159.807 26.3508L155.803 35.3435L153.506 34.3209L160.162 19.372L162.381 20.3599L161.341 22.6957L161.536 22.7824C162.224 22.1792 163.027 21.8062 163.946 21.6633C164.868 21.5139 165.893 21.6905 167.022 22.1932C168.034 22.6438 168.828 23.2458 169.402 23.999C169.979 24.7457 170.292 25.6315 170.341 26.6562C170.393 27.6745 170.136 28.8195 169.57 30.0912L165.341 39.59L163.044 38.5674L167.204 29.2243C167.727 28.0499 167.829 26.9993 167.511 26.0724C167.196 25.1391 166.506 24.4355 165.442 23.9618C164.709 23.6354 163.983 23.5026 163.264 23.5634C162.551 23.6271 161.894 23.8902 161.291 24.3528C160.689 24.8154 160.194 25.4814 159.807 26.3508Z" fill="black"/>
<path d="M172.484 51.9668C171.501 51.2529 170.749 50.5128 170.225 49.7466C169.698 48.986 169.347 48.2306 169.173 47.4803C168.999 46.74 168.942 46.0398 169 45.3797L171.447 45.4193C171.455 45.7942 171.488 46.2391 171.544 46.7539C171.596 47.2745 171.782 47.8271 172.104 48.4118C172.427 49.0064 172.988 49.5938 173.786 50.1741C174.855 50.9506 175.925 51.3328 176.996 51.3208C178.067 51.3088 179.003 50.7512 179.805 49.648L181.758 46.9589L181.586 46.8337C181.261 46.9665 180.832 47.1108 180.297 47.2667C179.772 47.421 179.154 47.4502 178.442 47.3545C177.74 47.2572 176.959 46.8954 176.097 46.2692C175.028 45.4928 174.252 44.5428 173.769 43.4193C173.292 42.3 173.157 41.0782 173.364 39.7539C173.577 38.4337 174.184 37.0841 175.186 35.7051C176.171 34.3491 177.268 33.3416 178.475 32.6826C179.687 32.0178 180.918 31.7185 182.169 31.7847C183.425 31.8452 184.61 32.2804 185.724 33.0903C186.586 33.7165 187.166 34.3569 187.463 35.0116C187.769 35.6647 187.926 36.2703 187.933 36.8285C187.95 37.3851 187.95 37.8326 187.932 38.171L188.139 38.3213L189.667 36.2183L191.632 37.646L181.738 51.2637C180.912 52.4014 179.981 53.1386 178.946 53.4754C177.913 53.8221 176.842 53.8469 175.732 53.5498C174.624 53.2626 173.541 52.7349 172.484 51.9668ZM177.7 44.6424C178.516 45.2352 179.341 45.5494 180.176 45.5851C181.01 45.6207 181.828 45.3945 182.631 44.9064C183.433 44.4183 184.189 43.6858 184.899 42.7091C185.592 41.7552 186.06 40.8091 186.303 39.8707C186.545 38.9322 186.536 38.0516 186.273 37.2287C186.011 36.4059 185.466 35.694 184.638 35.0928C183.776 34.4666 182.899 34.1631 182.008 34.1824C181.121 34.2058 180.268 34.4808 179.446 35.0076C178.63 35.5385 177.897 36.2521 177.245 37.1485C176.577 38.0678 176.13 38.9852 175.904 39.9007C175.688 40.8146 175.718 41.6793 175.995 42.4948C176.281 43.3087 176.85 44.0246 177.7 44.6424Z" fill="black"/>
<path d="M218.187 70.8736L216.342 71.9389L211.931 64.2997L213.777 63.2344L218.187 70.8736ZM200.926 73.7043L217.053 64.3932C217.865 63.9244 218.652 63.7245 219.414 63.7933C220.175 63.8622 220.867 64.1229 221.489 64.5756C222.111 65.0283 222.618 65.5929 223.008 66.2695C223.317 66.8046 223.526 67.2662 223.635 67.6542C223.745 68.0422 223.81 68.3405 223.832 68.5492L221.588 69.0085C221.561 68.8765 221.518 68.6961 221.46 68.4673C221.405 68.2447 221.287 67.9765 221.106 67.6628C220.691 66.9432 220.209 66.5282 219.662 66.4179C219.118 66.3137 218.495 66.464 217.794 66.8689L202.183 75.8816L200.926 73.7043Z" fill="black"/>
<path d="M209.173 92.6745C208.716 91.2696 208.65 89.9282 208.974 88.6504C209.3 87.3794 209.968 86.2514 210.977 85.2663C211.989 84.288 213.298 83.5377 214.906 83.0153C216.527 82.4886 218.037 82.3226 219.438 82.5174C220.84 82.719 222.046 83.238 223.057 84.0744C224.071 84.9176 224.806 86.0417 225.262 87.4467C225.719 88.8517 225.784 90.1896 225.457 91.4607C225.133 92.7384 224.462 93.8675 223.444 94.8481C222.428 95.8353 221.11 96.5923 219.488 97.1191C217.881 97.6414 216.379 97.8007 214.984 97.5969C213.591 97.4 212.387 96.8799 211.374 96.0367C210.363 95.2002 209.629 94.0795 209.173 92.6745ZM211.321 91.9766C211.667 93.0438 212.226 93.8331 212.997 94.3443C213.768 94.8555 214.653 95.1317 215.652 95.173C216.652 95.2143 217.671 95.0659 218.711 94.7279C219.752 94.3899 220.667 93.9095 221.458 93.2866C222.249 92.6637 222.809 91.9178 223.139 91.0489C223.469 90.1799 223.461 89.2118 223.114 88.1446C222.767 87.0774 222.205 86.2893 221.427 85.7802C220.65 85.2712 219.758 84.9972 218.752 84.9581C217.746 84.919 216.723 85.0685 215.683 85.4065C214.643 85.7445 213.73 86.2238 212.946 86.8445C212.162 87.4652 211.609 88.2089 211.285 89.0756C210.962 89.9424 210.974 90.9094 211.321 91.9766Z" fill="black"/>
<path d="M235.326 110.352L213.627 112.632L213.364 110.132L235.063 107.851L235.326 110.352Z" fill="black"/>
<path d="M235.063 134.146L213.365 131.866L213.628 129.365L235.326 131.646L235.063 134.146Z" fill="black"/>
<path d="M209.173 149.323C209.63 147.918 210.365 146.794 211.378 145.951C212.389 145.114 213.592 144.594 214.988 144.39C216.381 144.193 217.882 144.356 219.489 144.878C221.11 145.405 222.43 146.159 223.448 147.139C224.464 148.127 225.135 149.256 225.462 150.527C225.786 151.804 225.719 153.146 225.263 154.551C224.806 155.956 224.073 157.076 223.062 157.913C222.048 158.756 220.842 159.275 219.442 159.47C218.039 159.671 216.528 159.509 214.907 158.982C213.299 158.46 211.991 157.706 210.981 156.721C209.97 155.743 209.302 154.615 208.978 153.337C208.652 152.066 208.717 150.728 209.173 149.323ZM211.321 150.021C210.975 151.088 210.963 152.055 211.286 152.922C211.609 153.789 212.163 154.532 212.947 155.153C213.731 155.774 214.643 156.253 215.684 156.591C216.724 156.929 217.747 157.078 218.753 157.039C219.759 157 220.651 156.726 221.428 156.217C222.206 155.708 222.768 154.92 223.115 153.853C223.462 152.786 223.47 151.818 223.14 150.949C222.81 150.08 222.25 149.334 221.459 148.711C220.668 148.088 219.753 147.608 218.712 147.27C217.672 146.932 216.652 146.783 215.653 146.824C214.654 146.866 213.769 147.142 212.998 147.653C212.227 148.164 211.668 148.954 211.321 150.021Z" fill="black"/>
<path d="M204.514 162.082L221.178 165.946L219.857 168.234L207.239 165.033L207.153 165.18L216.256 174.471L214.914 176.796L202.375 173.542L202.29 173.69L211.334 182.996L210.013 185.284L198.335 172.784L199.571 170.644L212.247 173.829L212.375 173.608L203.278 164.222L204.514 162.082Z" fill="black"/>
<path d="M191.211 181.625L203.372 192.574L201.69 194.443L189.529 183.493L191.211 181.625ZM204.543 195.349C204.871 194.985 205.278 194.783 205.764 194.742C206.245 194.707 206.659 194.846 207.008 195.16C207.356 195.473 207.538 195.871 207.553 196.353C207.563 196.84 207.405 197.266 207.077 197.63C206.749 197.994 206.344 198.194 205.863 198.229C205.378 198.27 204.961 198.133 204.612 197.82C204.264 197.506 204.085 197.106 204.074 196.618C204.059 196.136 204.215 195.713 204.543 195.349Z" fill="black"/>
<path d="M185.065 201.066L179.279 193.102L181.313 191.625L190.932 204.863L188.966 206.291L187.464 204.222L187.291 204.348C187.469 205.245 187.391 206.128 187.055 206.995C186.724 207.868 186.058 208.667 185.058 209.394C184.162 210.045 183.244 210.431 182.304 210.552C181.369 210.678 180.446 210.506 179.534 210.037C178.626 209.572 177.763 208.777 176.944 207.651L170.833 199.239L172.867 197.761L178.878 206.035C179.634 207.075 180.493 207.689 181.454 207.877C182.42 208.071 183.374 207.825 184.317 207.141C184.966 206.669 185.444 206.107 185.751 205.454C186.052 204.805 186.153 204.104 186.053 203.351C185.954 202.598 185.625 201.836 185.065 201.066Z" fill="black"/>
<path d="M156.543 199.237C157.652 198.743 158.669 198.461 159.595 198.391C160.517 198.315 161.347 198.389 162.084 198.612C162.811 198.833 163.447 199.133 163.989 199.513L162.731 201.613C162.402 201.433 162.001 201.238 161.527 201.029C161.05 200.814 160.478 200.699 159.811 200.685C159.135 200.668 158.346 200.86 157.444 201.261C156.237 201.799 155.371 202.534 154.846 203.467C154.321 204.401 154.336 205.491 154.89 206.736L156.242 209.773L156.437 209.686C156.484 209.339 156.574 208.894 156.706 208.353C156.835 207.822 157.119 207.272 157.558 206.703C157.993 206.144 158.697 205.648 159.67 205.214C160.877 204.677 162.088 204.48 163.302 204.624C164.51 204.77 165.636 205.264 166.679 206.106C167.716 206.95 168.581 208.151 169.274 209.708C169.956 211.239 170.281 212.692 170.248 214.068C170.217 215.449 169.861 216.665 169.178 217.716C168.498 218.773 167.529 219.581 166.27 220.142C165.297 220.575 164.452 220.757 163.737 220.686C163.018 220.626 162.415 220.459 161.928 220.186C161.437 219.922 161.05 219.698 160.766 219.514L160.532 219.618L161.589 221.992L159.371 222.98L152.524 207.603C151.952 206.319 151.779 205.144 152.005 204.079C152.221 203.011 152.735 202.071 153.548 201.258C154.35 200.442 155.349 199.768 156.543 199.237ZM160.278 207.416C159.356 207.827 158.672 208.384 158.223 209.089C157.775 209.794 157.562 210.616 157.584 211.555C157.605 212.493 157.861 213.514 158.353 214.617C158.832 215.694 159.418 216.573 160.109 217.252C160.8 217.932 161.568 218.364 162.411 218.548C163.255 218.732 164.144 218.616 165.079 218.2C166.052 217.767 166.753 217.159 167.182 216.377C167.605 215.598 167.794 214.721 167.749 213.746C167.697 212.774 167.446 211.782 166.995 210.77C166.533 209.731 165.962 208.886 165.282 208.232C164.599 207.588 163.835 207.182 162.99 207.013C162.142 206.855 161.238 206.989 160.278 207.416Z" fill="black"/>
</svg>
