<svg width="26" height="24" viewBox="0 0 26 24" fill="none" xmlns="http://www.w3.org/2000/svg">
<path d="M12.9992 24C12.5122 24 12.0473 23.8361 11.6544 23.5259C8.9869 21.4244 2.61155 16.1971 1.01218 13.0302C-1.07973 8.89171 0.176526 3.57659 3.80693 1.18244C4.98017 0.409756 6.30837 0 7.6587 0C9.67867 0 11.5769 0.878049 12.9992 2.44098C14.4214 0.878049 16.3197 0 18.3396 0C19.69 0 21.0181 0.409756 22.1914 1.18244C25.8218 3.57659 27.078 8.89171 24.9917 13.0302C23.3923 16.1971 17.017 21.4244 14.3495 23.5259C13.951 23.8361 13.4862 24 12.9992 24ZM7.6587 1.7561C6.61828 1.7561 5.59446 2.0722 4.68686 2.66927C1.78143 4.58927 0.785283 8.86244 2.4732 12.199C3.95635 15.1376 10.6305 20.5346 12.6394 22.1151C12.8497 22.279 13.143 22.279 13.3533 22.1151C15.3622 20.5288 22.0364 15.1317 23.5196 12.199C25.2075 8.86244 24.2114 4.58341 21.3059 2.66927C20.4039 2.0722 19.38 1.7561 18.3396 1.7561C16.5189 1.7561 14.8144 2.69268 13.6633 4.32L12.9992 5.26829L12.3351 4.32C11.184 2.69268 9.48497 1.7561 7.6587 1.7561Z" fill="white"/>
</svg>
