<svg width="24" height="24" viewBox="0 0 24 24" fill="none" xmlns="http://www.w3.org/2000/svg">
<path fill-rule="evenodd" clip-rule="evenodd" d="M23.99 23.4171L22.5991 18.2171C22.5192 17.9257 22.5592 17.6114 22.696 17.3371C23.9102 14.8971 24.315 11.9829 23.5682 8.94286C22.5535 4.82857 19.3497 1.52571 15.2566 0.434286C14.1392 0.142857 13.039 0 11.973 0C4.32264 0 -1.65169 7.19429 0.411964 15.2C1.36968 18.9029 5.31456 22.7371 9.02571 23.64C10.029 23.8857 11.0153 24 11.973 24C14.0309 24 15.9578 23.4686 17.6509 22.5543C17.839 22.4514 18.0499 22.3943 18.2551 22.3943C18.3577 22.3943 18.4604 22.4057 18.563 22.4343L23.6138 23.7886C23.6423 23.7943 23.6708 23.8 23.6936 23.8C23.8874 23.8 24.0413 23.6171 23.99 23.4171ZM21.0029 18.6457L21.7896 21.5886L18.9905 20.84C18.7511 20.7771 18.506 20.7429 18.2551 20.7429C17.7763 20.7429 17.2917 20.8686 16.8585 21.1029C15.3364 21.9257 13.6946 22.3429 11.973 22.3429C11.1236 22.3429 10.2628 22.2343 9.41336 22.0286C6.27228 21.2629 2.81196 17.88 2.01386 14.7829C1.18156 11.5486 1.83714 8.22857 3.80958 5.67429C5.78202 3.12 8.75778 1.65714 11.973 1.65714C12.9193 1.65714 13.8827 1.78286 14.8347 2.04C18.352 2.97714 21.0827 5.77714 21.9663 9.34286C22.5877 11.8571 22.3311 14.3657 21.2195 16.6C20.9003 17.24 20.8204 17.9657 21.0029 18.6457Z" fill="white"/>
</svg>
