<svg width="53" height="53" viewBox="0 0 53 53" fill="none" xmlns="http://www.w3.org/2000/svg">
<path d="M24.9637 4.98066C27.0662 4.98066 29.072 5.31915 30.957 5.89942L32.8661 1.30561C30.377 0.459381 27.7187 0 24.9637 0C22.233 0 19.5505 0.459381 17.0614 1.30561L18.9947 5.89942C20.8797 5.31915 22.8855 4.98066 24.9637 4.98066ZM42.726 15.7398L47.2934 13.8298C44.8768 9.01838 40.9376 5.10155 36.1286 2.65957L34.2436 7.25339C37.8685 9.11509 40.841 12.089 42.726 15.7398ZM15.7081 7.25339L13.7989 2.68375C9.01402 5.10155 5.07492 9.04255 2.65829 13.8298L7.24988 15.7398C9.13485 12.1132 12.0831 9.13927 15.7081 7.25339ZM17.9797 22.7756C19.4055 22.7756 20.6138 21.5184 20.6138 19.7534C20.6138 17.9884 19.4055 16.7311 17.9797 16.7311C16.5781 16.7311 15.3939 17.9884 15.3939 19.7534C15.3939 21.5184 16.5781 22.7756 17.9797 22.7756ZM32.0686 22.7756C33.4944 22.7756 34.7028 21.5184 34.7028 19.7534C34.7028 17.9884 33.4944 16.7311 32.0686 16.7311C30.6428 16.7311 29.4828 17.9884 29.4828 19.7534C29.4828 21.5184 30.6428 22.7756 32.0686 22.7756ZM44.9976 25C44.9976 27.0793 44.6593 29.1103 44.1034 30.9961L48.6709 32.9062C49.5167 30.4159 50 27.7563 50 25C50 22.2437 49.5167 19.5841 48.6709 17.0938L44.0793 19.0039C44.6834 20.8897 44.9976 22.9207 44.9976 25ZM5.02658 25C5.02658 22.9207 5.34074 20.8897 5.92073 19.028L1.28081 17.0938C0.459159 19.5841 0 22.2437 0 25C0 27.7563 0.459159 30.3917 1.30498 32.882L5.92073 30.972C5.34074 29.1103 5.02658 27.0793 5.02658 25ZM16.5056 31.8907C16.5056 33.5106 19.913 36.8714 24.9637 36.8714C30.0387 36.8714 33.4461 33.5106 33.4461 31.8907C33.4461 31.3104 32.8661 31.0203 32.3345 31.2863C30.5703 32.205 28.492 33.293 24.9637 33.293C21.4596 33.293 19.3813 32.205 17.6172 31.2863C17.0855 31.0203 16.5056 31.3104 16.5056 31.8907ZM7.27404 34.2602L2.68246 36.1702C5.09908 40.9574 9.01402 44.8985 13.8231 47.3162L15.7081 42.7224C12.0831 40.8366 9.13485 37.8868 7.27404 34.2602ZM24.9879 44.9952C22.8855 44.9952 20.8797 44.6808 18.9947 44.0764L17.0855 48.6944C19.5747 49.5406 22.2571 50 24.9879 50C27.7429 50 30.4012 49.5406 32.8903 48.7186L30.957 44.1006C29.072 44.6808 27.0662 44.9952 24.9879 44.9952Z" fill="white"/>
<path d="M43.0879 52.1758C48.0713 52.1758 52.1846 48.0625 52.1846 43.0879C52.1846 38.1133 48.0625 34 43.0791 34C38.1045 34 34 38.1133 34 43.0879C34 48.0625 38.1133 52.1758 43.0879 52.1758ZM43.0879 50.3652C39.0537 50.3652 35.8281 47.1221 35.8281 43.0879C35.8281 39.0537 39.0537 35.8193 43.0791 35.8193C47.1133 35.8193 50.3564 39.0537 50.3652 43.0879C50.374 47.1221 47.1221 50.3652 43.0879 50.3652ZM39.8447 43.9229H42.2529V46.3398C42.2529 46.8232 42.5957 47.166 43.0703 47.166C43.5625 47.166 43.9141 46.8232 43.9141 46.3398V43.9229H46.3311C46.8145 43.9229 47.166 43.5801 47.166 43.0967C47.166 42.6133 46.8232 42.2617 46.3311 42.2617H43.9141V39.8447C43.9141 39.3525 43.5625 39.0098 43.0703 39.0098C42.5957 39.0098 42.2529 39.3525 42.2529 39.8447V42.2617H39.8447C39.3438 42.2617 39.001 42.6133 39.001 43.0967C39.001 43.5801 39.3525 43.9229 39.8447 43.9229Z" fill="white"/>
</svg>
