<svg width="36" height="36" viewBox="0 0 36 36" fill="none" xmlns="http://www.w3.org/2000/svg">
<path d="M28.9888 8.66658L29.4046 8.38879V8.38879L28.9888 8.66658ZM28.9888 24.3334L28.5731 24.0556V24.0556L28.9888 24.3334ZM27.3334 25.9888L27.0556 25.5731H27.0556L27.3334 25.9888ZM21 26.998L20.9978 26.498C20.7225 26.4992 20.5 26.7227 20.5 26.998H21ZM21 27L21.4472 27.2236C21.4819 27.1542 21.5 27.0776 21.5 27H21ZM15 27H14.5C14.5 27.0776 14.5181 27.1542 14.5528 27.2236L15 27ZM15 26.998H15.5C15.5 26.7227 15.2775 26.4992 15.0022 26.498L15 26.998ZM8.66658 25.9888L8.38879 26.4046H8.38879L8.66658 25.9888ZM7.01118 24.3334L7.42692 24.0556H7.42692L7.01118 24.3334ZM7.01118 8.66658L6.59545 8.38879L6.59545 8.38879L7.01118 8.66658ZM8.66658 7.01118L8.38879 6.59545L8.38879 6.59545L8.66658 7.01118ZM27.3334 7.01118L27.0556 7.42692V7.42692L27.3334 7.01118ZM30.5 16.5C30.5 14.4037 30.5006 12.7939 30.371 11.5202C30.2406 10.2381 29.9742 9.24131 29.4046 8.38879L28.5731 8.94436C29.0146 9.60519 29.2538 10.4184 29.3762 11.6214C29.4994 12.8327 29.5 14.3829 29.5 16.5H30.5ZM29.4046 24.6112C29.9742 23.7587 30.2406 22.7619 30.371 21.4798C30.5006 20.2061 30.5 18.5963 30.5 16.5H29.5C29.5 18.6171 29.4994 20.1673 29.3762 21.3786C29.2538 22.5816 29.0146 23.3948 28.5731 24.0556L29.4046 24.6112ZM27.6112 26.4046C28.3209 25.9303 28.9303 25.3209 29.4046 24.6112L28.5731 24.0556C28.1718 24.6562 27.6562 25.1718 27.0556 25.5731L27.6112 26.4046ZM21.0022 27.498C22.6181 27.4909 23.9022 27.4599 24.9531 27.3146C26.012 27.1683 26.8665 26.9021 27.6112 26.4046L27.0556 25.5731C26.4783 25.9589 25.7843 26.1902 24.8162 26.3241C23.84 26.459 22.6185 26.4909 20.9978 26.498L21.0022 27.498ZM21.5 27V26.998H20.5V27H21.5ZM19.3416 31.4348L21.4472 27.2236L20.5528 26.7764L18.4472 30.9875L19.3416 31.4348ZM16.6584 31.4348C17.2111 32.5403 18.7889 32.5403 19.3416 31.4348L18.4472 30.9875C18.263 31.3561 17.737 31.3561 17.5528 30.9875L16.6584 31.4348ZM14.5528 27.2236L16.6584 31.4348L17.5528 30.9875L15.4472 26.7764L14.5528 27.2236ZM14.5 26.998V27H15.5V26.998H14.5ZM8.38879 26.4046C9.13347 26.9021 9.98796 27.1683 11.0469 27.3146C12.0978 27.4599 13.3819 27.4909 14.9978 27.498L15.0022 26.498C13.3815 26.4909 12.16 26.459 11.1838 26.3241C10.2157 26.1902 9.52172 25.9589 8.94436 25.5731L8.38879 26.4046ZM6.59545 24.6112C7.06968 25.3209 7.67906 25.9303 8.38879 26.4046L8.94436 25.5731C8.34382 25.1718 7.82819 24.6562 7.42692 24.0556L6.59545 24.6112ZM5.5 16.5C5.5 18.5963 5.4994 20.2061 5.62896 21.4798C5.75938 22.7619 6.02581 23.7587 6.59545 24.6112L7.42692 24.0556C6.98537 23.3948 6.74621 22.5816 6.62383 21.3786C6.5006 20.1673 6.5 18.6171 6.5 16.5H5.5ZM6.59545 8.38879C6.02581 9.24131 5.75938 10.2381 5.62896 11.5202C5.4994 12.7939 5.5 14.4037 5.5 16.5H6.5C6.5 14.3829 6.5006 12.8327 6.62383 11.6214C6.74621 10.4184 6.98537 9.60519 7.42692 8.94436L6.59545 8.38879ZM8.38879 6.59545C7.67906 7.06968 7.06968 7.67906 6.59545 8.38879L7.42692 8.94436C7.82819 8.34382 8.34382 7.82819 8.94436 7.42692L8.38879 6.59545ZM16.5 5.5C14.4037 5.5 12.7939 5.4994 11.5202 5.62896C10.2381 5.75938 9.24131 6.02581 8.38879 6.59545L8.94436 7.42692C9.60519 6.98537 10.4184 6.74621 11.6214 6.62383C12.8327 6.5006 14.3829 6.5 16.5 6.5V5.5ZM19.5 5.5H16.5V6.5H19.5V5.5ZM27.6112 6.59545C26.7587 6.02581 25.7619 5.75938 24.4798 5.62896C23.2061 5.4994 21.5963 5.5 19.5 5.5V6.5C21.6171 6.5 23.1673 6.5006 24.3786 6.62383C25.5816 6.74621 26.3948 6.98537 27.0556 7.42692L27.6112 6.59545ZM29.4046 8.38879C28.9303 7.67906 28.3209 7.06968 27.6112 6.59545L27.0556 7.42692C27.6562 7.82819 28.1718 8.34382 28.5731 8.94436L29.4046 8.38879Z" fill="white"/>
<circle cx="24" cy="16.5" r="1.5" fill="white"/>
<circle cx="18" cy="16.5" r="1.5" fill="white"/>
<circle cx="12" cy="16.5" r="1.5" fill="white"/>
</svg>
