<svg width="24" height="24" viewBox="0 0 24 24" fill="none" xmlns="http://www.w3.org/2000/svg">
<path d="M11.3861 2.34395L10.9256 1.75193L10.9256 1.75193L11.3861 2.34395ZM3.38606 8.56617L2.9256 7.97416L2.9256 7.97416L3.38606 8.56617ZM12.6139 2.34395L12.1535 2.93596L12.1535 2.93596L12.6139 2.34395ZM20.6139 8.56617L21.0744 7.97416L21.0744 7.97416L20.6139 8.56617ZM14.5 21.8664H13.75C13.75 22.2807 14.0858 22.6164 14.5 22.6164V21.8664ZM9.5 21.8664V22.6164C9.91421 22.6164 10.25 22.2807 10.25 21.8664H9.5ZM10.9256 1.75193L2.9256 7.97416L3.84651 9.15818L11.8465 2.93596L10.9256 1.75193ZM13.0744 1.75194C12.4425 1.26042 11.5575 1.26042 10.9256 1.75193L11.8465 2.93596C11.9368 2.86575 12.0632 2.86575 12.1535 2.93596L13.0744 1.75194ZM21.0744 7.97416L13.0744 1.75193L12.1535 2.93596L20.1535 9.15818L21.0744 7.97416ZM21.75 9.35552C21.75 8.81549 21.5007 8.30571 21.0744 7.97416L20.1535 9.15818C20.2144 9.20555 20.25 9.27838 20.25 9.35552H21.75ZM21.75 19.8664V9.35552H20.25V19.8664H21.75ZM21.75 21.1664V19.8664H20.25V21.1664H21.75ZM20.3 22.6164C21.1008 22.6164 21.75 21.9673 21.75 21.1664H20.25C20.25 21.1388 20.2724 21.1164 20.3 21.1164V22.6164ZM14.5 22.6164H20.3V21.1164H14.5V22.6164ZM13.75 15.3664V21.8664H15.25V15.3664H13.75ZM14 15.6164C13.8619 15.6164 13.75 15.5045 13.75 15.3664H15.25C15.25 14.6761 14.6904 14.1164 14 14.1164V15.6164ZM10 15.6164H14V14.1164H10V15.6164ZM10.25 15.3664C10.25 15.5045 10.1381 15.6164 10 15.6164V14.1164C9.30964 14.1164 8.75 14.6761 8.75 15.3664H10.25ZM10.25 21.8664V15.3664H8.75V21.8664H10.25ZM5 22.6164H9.5V21.1164H5V22.6164ZM3.7 22.6164H5V21.1164H3.7V22.6164ZM2.25 21.1664C2.25 21.9673 2.89919 22.6164 3.7 22.6164V21.1164C3.72761 21.1164 3.75 21.1388 3.75 21.1664H2.25ZM2.25 9.35552V21.1664H3.75V9.35552H2.25ZM2.9256 7.97416C2.49933 8.30571 2.25 8.81549 2.25 9.35552H3.75C3.75 9.27838 3.78562 9.20555 3.84652 9.15818L2.9256 7.97416Z" fill="#999999"/>
</svg>
