<svg width="26" height="24" viewBox="0 0 26 24" fill="none" xmlns="http://www.w3.org/2000/svg">
<path d="M12.9992 24C12.5122 24 12.0473 23.8361 11.6544 23.5259C8.9869 21.4244 2.61155 16.1971 1.01218 13.0302C-1.07973 8.89171 0.176526 3.57659 3.80693 1.18244C4.98017 0.409756 6.30837 0 7.6587 0C9.67867 0 11.5769 0.878049 12.9992 2.44098C14.4214 0.878049 16.3197 0 18.3396 0C19.6899 0 21.0181 0.409756 22.1914 1.18244C25.8218 3.57659 27.078 8.89171 24.9917 13.0302C23.3923 16.1971 17.017 21.4244 14.3495 23.5259C13.951 23.8361 13.4862 24 12.9992 24ZM12.5357 19.8462C12.0714 21.6923 5.10714 17.0769 12.5357 19.8462C9.63028 21.7662 11.3112 1.93171 12.9992 5.26829C14.4823 8.20683 17.5747 11.8041 19.5836 13.3846C19.7939 13.5485 13.143 22.279 13.3533 22.1151C15.3622 20.5288 22.0364 15.1317 23.5196 12.199C25.2075 8.86244 23.8819 18.068 20.9765 16.1538C20.0744 15.5568 21.3892 18 20.3488 18C18.5281 18 14.5356 20.9881 13.3845 22.6154L12.9992 5.26829L12.5357 19.8462C10.2143 20.7692 11.6071 14.3077 12.5357 19.8462Z" fill="#FF0000"/>
</svg>
