<svg width="28" height="28" viewBox="0 0 28 28" fill="none" xmlns="http://www.w3.org/2000/svg">
<path d="M21.135 7.0101C19.8781 6.1906 18.9709 4.8794 18.6879 3.35088C18.6268 3.02064 18.5932 2.68076 18.5932 2.33301H14.5817L14.5753 18.4096C14.5079 20.2099 13.0262 21.6549 11.2097 21.6549C10.6451 21.6549 10.1135 21.5137 9.6455 21.2674C8.57218 20.7026 7.83765 19.5775 7.83765 18.2829C7.83765 16.4234 9.35043 14.9106 11.2097 14.9106C11.5568 14.9106 11.8897 14.9679 12.2047 15.0666V10.9713C11.8787 10.9269 11.5476 10.8992 11.2097 10.8992C7.13834 10.8992 3.82617 14.2115 3.82617 18.2829C3.82617 20.7808 5.07422 22.9914 6.97825 24.3281C8.17757 25.1701 9.63638 25.6663 11.2097 25.6663C15.2811 25.6663 18.5932 22.3542 18.5932 18.2829V10.1306C20.1666 11.2599 22.0942 11.9253 24.1742 11.9253V7.91387C23.0538 7.91387 22.0102 7.58077 21.135 7.0101" fill="white"/>
</svg>
