<svg width="24" height="24" viewBox="0 0 24 24" fill="none" xmlns="http://www.w3.org/2000/svg">
<g clip-path="url(#clip0_831_627)">
<path fill-rule="evenodd" clip-rule="evenodd" d="M12.0001 5.83781C8.59677 5.83781 5.83789 8.59669 5.83789 12C5.83789 15.4032 8.59677 18.1621 12.0001 18.1621C15.4033 18.1621 18.1622 15.4032 18.1622 12C18.1622 8.59669 15.4033 5.83781 12.0001 5.83781ZM12.0001 15.9999C9.79091 15.9999 8.00005 14.2091 8.00005 12C8.00005 9.79083 9.79091 7.99997 12.0001 7.99997C14.2092 7.99997 16 9.79083 16 12C16 14.2091 14.2092 15.9999 12.0001 15.9999Z" fill="url(#paint0_linear_831_627)"/>
<path d="M18.4056 7.03434C19.2009 7.03434 19.8456 6.38967 19.8456 5.59434C19.8456 4.79906 19.2009 4.15439 18.4056 4.15439C17.6103 4.15439 16.9656 4.79906 16.9656 5.59434C16.9656 6.38967 17.6103 7.03434 18.4056 7.03434Z" fill="url(#paint1_linear_831_627)"/>
<path fill-rule="evenodd" clip-rule="evenodd" d="M12 0C8.74097 0 8.33231 0.0138281 7.05239 0.0722344C5.77514 0.1305 4.9028 0.333328 4.13948 0.63C3.35039 0.936656 2.68116 1.347 2.01408 2.01412C1.34695 2.6812 0.936609 3.35044 0.629953 4.13953C0.333281 4.9028 0.130453 5.77514 0.0721875 7.05239C0.0137812 8.33231 0 8.74097 0 12C0 15.2589 0.0137812 15.6676 0.0721875 16.9475C0.130453 18.2248 0.333281 19.0971 0.629953 19.8604C0.936609 20.6495 1.34695 21.3187 2.01408 21.9859C2.68116 22.653 3.35039 23.0633 4.13948 23.37C4.9028 23.6666 5.77514 23.8695 7.05239 23.9277C8.33231 23.9861 8.74097 23.9999 12 23.9999C15.2589 23.9999 15.6676 23.9861 16.9475 23.9277C18.2248 23.8695 19.0971 23.6666 19.8604 23.37C20.6495 23.0633 21.3187 22.653 21.9859 21.9859C22.653 21.3187 23.0633 20.6495 23.37 19.8604C23.6666 19.0971 23.8695 18.2248 23.9277 16.9475C23.9861 15.6676 23.9999 15.2589 23.9999 12C23.9999 8.74097 23.9861 8.33231 23.9277 7.05239C23.8695 5.77514 23.6666 4.9028 23.37 4.13953C23.0633 3.35044 22.653 2.6812 21.9859 2.01412C21.3187 1.347 20.6495 0.936656 19.8604 0.63C19.0971 0.333328 18.2248 0.1305 16.9475 0.0722344C15.6676 0.0138281 15.2589 0 12 0ZM12 2.1622C15.2041 2.1622 15.5836 2.17439 16.849 2.23214C18.0189 2.28553 18.6543 2.481 19.0772 2.6453C19.6373 2.86298 20.037 3.12305 20.457 3.54295C20.8769 3.96286 21.1369 4.36266 21.3546 4.92272C21.519 5.34558 21.7144 5.98097 21.7678 7.15092C21.8255 8.41631 21.8377 8.79586 21.8377 12C21.8377 15.2041 21.8255 15.5836 21.7678 16.849C21.7144 18.0189 21.519 18.6543 21.3546 19.0772C21.1369 19.6373 20.8769 20.037 20.457 20.457C20.037 20.8769 19.6373 21.1369 19.0772 21.3546C18.6543 21.519 18.0189 21.7144 16.849 21.7678C15.5838 21.8255 15.2043 21.8377 12 21.8377C8.79558 21.8377 8.41617 21.8255 7.15092 21.7678C5.98097 21.7144 5.34558 21.519 4.92272 21.3546C4.36261 21.1369 3.96286 20.8769 3.54291 20.457C3.123 20.037 2.86294 19.6373 2.6453 19.0772C2.48095 18.6543 2.28548 18.0189 2.23209 16.849C2.17434 15.5836 2.16216 15.2041 2.16216 12C2.16216 8.79586 2.17434 8.41631 2.23209 7.15092C2.28548 5.98097 2.48095 5.34558 2.6453 4.92272C2.86294 4.36266 3.123 3.96286 3.54291 3.54295C3.96286 3.12305 4.36261 2.86298 4.92272 2.6453C5.34558 2.481 5.98097 2.28553 7.15092 2.23214C8.41631 2.17439 8.79586 2.1622 12 2.1622Z" fill="url(#paint2_linear_831_627)"/>
</g>
<defs>
<linearGradient id="paint0_linear_831_627" x1="14.1005" y1="-1.27164" x2="7.08714" y2="21.8987" gradientUnits="userSpaceOnUse">
<stop stop-color="#515BD4"/>
<stop offset="0.26" stop-color="#9510B8"/>
<stop offset="0.66" stop-color="#E51804"/>
<stop offset="1" stop-color="#FFBF00"/>
</linearGradient>
<linearGradient id="paint1_linear_831_627" x1="14.1005" y1="-1.27164" x2="7.08714" y2="21.8987" gradientUnits="userSpaceOnUse">
<stop stop-color="#515BD4"/>
<stop offset="0.26" stop-color="#9510B8"/>
<stop offset="0.66" stop-color="#E51804"/>
<stop offset="1" stop-color="#FFBF00"/>
</linearGradient>
<linearGradient id="paint2_linear_831_627" x1="14.1005" y1="-1.27164" x2="7.08714" y2="21.8987" gradientUnits="userSpaceOnUse">
<stop stop-color="#515BD4"/>
<stop offset="0.26" stop-color="#9510B8"/>
<stop offset="0.66" stop-color="#E51804"/>
<stop offset="1" stop-color="#FFBF00"/>
</linearGradient>
<clipPath id="clip0_831_627">
<rect width="24" height="24" fill="white"/>
</clipPath>
</defs>
</svg>
