<svg width="60" height="57" viewBox="0 0 60 57" fill="none" xmlns="http://www.w3.org/2000/svg">
<path d="M7.01732 0.235329C5.88825 0.513439 4.19464 1.43335 3.06557 2.39605C2.02014 3.27317 1.24652 4.51398 0.514711 6.41798C0.0756277 7.59461 0.0756278 7.76575 0.0129016 27.1694C-0.0289158 39.6631 0.0338103 47.3433 0.159263 48.3916C0.661072 52.2423 3.44193 55.7081 6.70369 56.6066C8.33457 57.0558 51.5947 57.0558 53.2465 56.6066C55.6719 55.9434 57.5328 54.3175 58.8082 51.7075L59.6446 50.0602L59.7909 46.6801C59.8745 44.8403 59.9373 38.3153 59.9582 32.2183L60 21.0938L57.1564 24.0246L54.3337 26.9555V36.8392C54.3337 47.5572 54.2919 48.0707 53.1838 49.5468C52.9119 49.9105 52.1801 50.4881 51.5738 50.7876L50.4865 51.3438H29.9751H9.46364L8.39729 50.809C7.24732 50.21 6.32733 49.1617 5.90916 47.9423C5.5328 46.894 5.49098 10.5255 5.86734 9.04935C6.13915 7.91551 7.24732 6.63191 8.48093 6.05429C9.21274 5.69061 10.3209 5.66922 21.9252 5.60504L34.575 5.54086L37.2931 2.75973L39.9904 3.8147e-06L23.9116 0.0213966C15.0463 0.0427895 7.4564 0.128361 7.01732 0.235329Z" fill="#999999"/>
<path d="M49.9434 2.503C49.7761 2.56718 49.4207 2.8239 49.1698 3.05923C48.7516 3.44431 48.6889 3.70103 48.6889 5.28413V7.05977H47.0998C45.6362 7.05977 45.4689 7.10255 44.9044 7.68017C44.1308 8.47172 44.0889 9.56278 44.7789 10.3757C45.1971 10.8892 45.448 10.9533 46.9744 11.0603L48.6889 11.1887V12.729C48.6889 13.9698 48.7725 14.3977 49.1279 14.8469C49.6716 15.5315 50.8843 15.6171 51.637 14.9967C52.0761 14.633 52.1597 14.3549 52.2433 12.8359L52.3479 11.1031L53.8115 10.9961C55.7142 10.8678 55.9442 10.7822 56.3205 10.0548C57.2196 8.25779 56.1533 7.05977 53.6024 7.05977H52.2433V5.28413C52.2433 3.70103 52.1806 3.44431 51.7834 3.03784C51.2606 2.54579 50.4243 2.31046 49.9434 2.503Z" fill="#999999"/>
<path d="M12.9345 9.77668C11.9518 10.2901 11.3664 11.424 11.5546 12.4508C11.6591 13.0926 12.9345 14.4618 20.1062 21.7569C36.0596 37.9302 44.5485 46.4233 45.1967 46.787C46.7858 47.6855 48.9603 45.9313 48.6048 44.0273C48.5003 43.4283 47.3503 42.1447 41.9349 36.668C29.2642 23.7893 17.6181 12.0444 16.3636 10.825C14.8791 9.41299 14.0845 9.17767 12.9345 9.77668Z" fill="#999999"/>
<path d="M25.0613 11.7877C24.3713 12.0658 23.5977 12.836 23.5977 13.2211C23.5977 13.5633 47.9354 38.2726 48.7508 38.7432C49.0854 38.9358 49.1063 38.4437 49.1063 29.4158C49.1063 19.0614 49.1063 19.0614 47.9354 17.9276C46.9527 17.0077 46.3882 16.9007 42.29 16.9007H38.4428L37.3347 14.5902C35.8502 11.4454 36.0802 11.5524 30.1839 11.5738C27.6539 11.5738 25.354 11.6807 25.0613 11.7877ZM43.8582 21.9495C44.5482 22.5271 44.6736 23.1475 44.2764 24.0246C43.9418 24.752 43.2518 25.0301 41.6837 25.0301C39.9692 25.0301 39.2374 24.4953 39.2374 23.2117C39.2374 21.9067 39.9483 21.3933 41.7882 21.3933C43.0219 21.3933 43.3146 21.4788 43.8582 21.9495Z" fill="#999999"/>
<path d="M11.3247 18.7619C10.9692 19.2967 10.9483 20.2594 10.8856 31.1272L10.8438 42.8935L11.3037 43.8562C11.6174 44.498 12.0774 44.9686 12.621 45.2895L13.4573 45.7816H26.358H39.2378L36.6451 43.0646L34.0733 40.3691L32.6934 40.8183C31.0416 41.3745 28.5743 41.4387 27.0062 40.9681C22.3226 39.5347 19.6045 33.8227 21.5072 29.3515L21.9881 28.2177L17.0955 23.2117C14.3982 20.4519 12.0774 18.1842 11.9519 18.1842C11.8056 18.1842 11.5128 18.441 11.3247 18.7619Z" fill="#999999"/>
<path d="M24.3716 31.2555C23.4725 34.6571 26.2324 38.1656 29.8078 38.1656C30.5187 38.1656 31.1878 38.08 31.2714 37.9944C31.3551 37.9088 29.8706 36.2616 27.947 34.3148C24.8107 31.0844 24.4761 30.8063 24.3716 31.2555Z" fill="#999999"/>
</svg>
