<svg width="40" height="40" viewBox="0 0 40 40" fill="none" xmlns="http://www.w3.org/2000/svg">
<path d="M5 16.4233C5 14.7167 6.38352 13.3332 8.09017 13.3332V13.3332C9.26064 13.3332 10.3307 12.6719 10.8541 11.625L12.2278 8.87765C12.7657 7.80182 13.0346 7.2639 13.5179 6.9652C14.0012 6.6665 14.6027 6.6665 15.8055 6.6665H24.1945C25.3973 6.6665 25.9988 6.6665 26.4821 6.9652C26.9654 7.2639 27.2343 7.80182 27.7722 8.87765L29.1459 11.625C29.6693 12.6719 30.7394 13.3332 31.9098 13.3332V13.3332C33.6165 13.3332 35 14.7167 35 16.4233V27.3332C35 30.1616 35 31.5758 34.1213 32.4545C33.2426 33.3332 31.8284 33.3332 29 33.3332H11C8.17157 33.3332 6.75736 33.3332 5.87868 32.4545C5 31.5758 5 30.1616 5 27.3332V16.4233Z" stroke="#FFFDFD" stroke-width="2"/>
<path d="M25.6663 21.6667C25.6663 24.7963 23.1293 27.3333 19.9997 27.3333C16.8701 27.3333 14.333 24.7963 14.333 21.6667C14.333 18.5371 16.8701 16 19.9997 16C23.1293 16 25.6663 18.5371 25.6663 21.6667Z" stroke="#FFFDFD" stroke-width="2"/>
</svg>
