<svg width="56" height="56" viewBox="0 0 56 56" fill="none" xmlns="http://www.w3.org/2000/svg">
<path d="M27.9665 55.1738C43.0857 55.1738 55.3422 42.9271 55.3422 27.8201C55.3422 12.713 43.0857 0.466309 27.9665 0.466309C12.8473 0.466309 0.59082 12.713 0.59082 27.8201C0.59082 42.9271 12.8473 55.1738 27.9665 55.1738Z" fill="#F4F4F4" stroke="black" stroke-width="0.5"/>
<path d="M29.353 40.2907H22.4197C18.5912 40.2907 15.4863 37.1883 15.4863 33.3629V22.2774C15.4863 18.452 18.5912 15.3496 22.4197 15.3496H33.5141C37.3425 15.3496 40.4474 18.452 40.4474 22.2774V29.2051" stroke="black" stroke-width="1.5" stroke-linecap="round" stroke-linejoin="round"/>
<path d="M31.4971 24.2922C33.446 26.2409 33.446 29.3987 31.4971 31.346C29.5468 33.2934 26.3865 33.2934 24.4363 31.346C22.4874 29.3987 22.4874 26.2409 24.4363 24.2922C25.3719 23.356 26.6429 22.8311 27.9667 22.8311C29.2904 22.8311 30.5615 23.356 31.4971 24.2922Z" stroke="black" stroke-width="1.5" stroke-linecap="round" stroke-linejoin="round"/>
<path d="M34.9004 38.2031H41.8337" stroke="black" stroke-width="1.5" stroke-linecap="round" stroke-linejoin="round"/>
<path d="M38.3672 41.667V34.7393" stroke="black" stroke-width="1.5" stroke-linecap="round" stroke-linejoin="round"/>
</svg>
